<svg id="visual" viewBox="0 0 960 120" width="960" height="120" xmlns="http://www.w3.org/2000/svg" xmlns:xlink="http://www.w3.org/1999/xlink" version="1.1"><rect x="0" y="0" width="960" height="120" fill="#001220"></rect><path d="M0 65L17.8 69.5C35.7 74 71.3 83 106.8 84.2C142.3 85.3 177.7 78.7 213.2 77C248.7 75.3 284.3 78.7 320 83C355.7 87.3 391.3 92.7 426.8 94.5C462.3 96.3 497.7 94.7 533.2 88.5C568.7 82.3 604.3 71.7 640 72.5C675.7 73.3 711.3 85.7 746.8 88.8C782.3 92 817.7 86 853.2 86.2C888.7 86.3 924.3 92.7 942.2 95.8L960 99L960 0L942.2 0C924.3 0 888.7 0 853.2 0C817.7 0 782.3 0 746.8 0C711.3 0 675.7 0 640 0C604.3 0 568.7 0 533.2 0C497.7 0 462.3 0 426.8 0C391.3 0 355.7 0 320 0C284.3 0 248.7 0 213.2 0C177.7 0 142.3 0 106.8 0C71.3 0 35.7 0 17.8 0L0 0Z" fill="#365486"></path><path d="M0 81L17.8 80.8C35.7 80.7 71.3 80.3 106.8 75.8C142.3 71.3 177.7 62.7 213.2 62.7C248.7 62.7 284.3 71.3 320 74.7C355.7 78 391.3 76 426.8 73.7C462.3 71.3 497.7 68.7 533.2 64.7C568.7 60.7 604.3 55.3 640 53.7C675.7 52 711.3 54 746.8 56.3C782.3 58.7 817.7 61.3 853.2 61.3C888.7 61.3 924.3 58.7 942.2 57.3L960 56L960 0L942.2 0C924.3 0 888.7 0 853.2 0C817.7 0 782.3 0 746.8 0C711.3 0 675.7 0 640 0C604.3 0 568.7 0 533.2 0C497.7 0 462.3 0 426.8 0C391.3 0 355.7 0 320 0C284.3 0 248.7 0 213.2 0C177.7 0 142.3 0 106.8 0C71.3 0 35.7 0 17.8 0L0 0Z" fill="#3e709e"></path><path d="M0 63L17.8 60.2C35.7 57.3 71.3 51.7 106.8 49.7C142.3 47.7 177.7 49.3 213.2 51C248.7 52.7 284.3 54.3 320 54.8C355.7 55.3 391.3 54.7 426.8 54.7C462.3 54.7 497.7 55.3 533.2 55.5C568.7 55.7 604.3 55.3 640 55C675.7 54.7 711.3 54.3 746.8 51.8C782.3 49.3 817.7 44.7 853.2 43.7C888.7 42.7 924.3 45.3 942.2 46.7L960 48L960 0L942.2 0C924.3 0 888.7 0 853.2 0C817.7 0 782.3 0 746.8 0C711.3 0 675.7 0 640 0C604.3 0 568.7 0 533.2 0C497.7 0 462.3 0 426.8 0C391.3 0 355.7 0 320 0C284.3 0 248.7 0 213.2 0C177.7 0 142.3 0 106.8 0C71.3 0 35.7 0 17.8 0L0 0Z" fill="#4d8db3"></path><path d="M0 23L17.8 24.8C35.7 26.7 71.3 30.3 106.8 30.5C142.3 30.7 177.7 27.3 213.2 28C248.7 28.7 284.3 33.3 320 33.8C355.7 34.3 391.3 30.7 426.8 28.3C462.3 26 497.7 25 533.2 24.8C568.7 24.7 604.3 25.3 640 26.2C675.7 27 711.3 28 746.8 27.8C782.3 27.7 817.7 26.3 853.2 27.2C888.7 28 924.3 31 942.2 32.5L960 34L960 0L942.2 0C924.3 0 888.7 0 853.2 0C817.7 0 782.3 0 746.8 0C711.3 0 675.7 0 640 0C604.3 0 568.7 0 533.2 0C497.7 0 462.3 0 426.8 0C391.3 0 355.7 0 320 0C284.3 0 248.7 0 213.2 0C177.7 0 142.3 0 106.8 0C71.3 0 35.7 0 17.8 0L0 0Z" fill="#63aac7"></path><path d="M0 24L17.8 24.7C35.7 25.3 71.3 26.7 106.8 24.2C142.3 21.7 177.7 15.3 213.2 12.3C248.7 9.3 284.3 9.7 320 12C355.7 14.3 391.3 18.7 426.8 20.8C462.3 23 497.7 23 533.2 24C568.7 25 604.3 27 640 27.5C675.7 28 711.3 27 746.8 25.2C782.3 23.3 817.7 20.7 853.2 20.3C888.7 20 924.3 22 942.2 23L960 24L960 0L942.2 0C924.3 0 888.7 0 853.2 0C817.7 0 782.3 0 746.8 0C711.3 0 675.7 0 640 0C604.3 0 568.7 0 533.2 0C497.7 0 462.3 0 426.8 0C391.3 0 355.7 0 320 0C284.3 0 248.7 0 213.2 0C177.7 0 142.3 0 106.8 0C71.3 0 35.7 0 17.8 0L0 0Z" fill="#7fc7d9"></path></svg>