<svg id="visual" viewBox="0 0 960 120" width="960" height="120" xmlns="http://www.w3.org/2000/svg" xmlns:xlink="http://www.w3.org/1999/xlink" version="1.1"><rect x="0" y="0" width="960" height="120" fill="#001220"></rect><path d="M0 33L22.8 31.2C45.7 29.3 91.3 25.7 137 26.8C182.7 28 228.3 34 274 37.7C319.7 41.3 365.3 42.7 411.2 41C457 39.3 503 34.7 548.8 32.8C594.7 31 640.3 32 686 34.3C731.7 36.7 777.3 40.3 823 41.8C868.7 43.3 914.3 42.7 937.2 42.3L960 42L960 121L937.2 121C914.3 121 868.7 121 823 121C777.3 121 731.7 121 686 121C640.3 121 594.7 121 548.8 121C503 121 457 121 411.2 121C365.3 121 319.7 121 274 121C228.3 121 182.7 121 137 121C91.3 121 45.7 121 22.8 121L0 121Z" fill="#365486"></path><path d="M0 64L22.8 59.7C45.7 55.3 91.3 46.7 137 45.8C182.7 45 228.3 52 274 55.5C319.7 59 365.3 59 411.2 56.7C457 54.3 503 49.7 548.8 46.3C594.7 43 640.3 41 686 44.5C731.7 48 777.3 57 823 59.8C868.7 62.7 914.3 59.3 937.2 57.7L960 56L960 121L937.2 121C914.3 121 868.7 121 823 121C777.3 121 731.7 121 686 121C640.3 121 594.7 121 548.8 121C503 121 457 121 411.2 121C365.3 121 319.7 121 274 121C228.3 121 182.7 121 137 121C91.3 121 45.7 121 22.8 121L0 121Z" fill="#3e709e"></path><path d="M0 55L22.8 56.7C45.7 58.3 91.3 61.7 137 61.8C182.7 62 228.3 59 274 58.7C319.7 58.3 365.3 60.7 411.2 61.7C457 62.7 503 62.3 548.8 64C594.7 65.7 640.3 69.3 686 68.7C731.7 68 777.3 63 823 62.7C868.7 62.3 914.3 66.7 937.2 68.8L960 71L960 121L937.2 121C914.3 121 868.7 121 823 121C777.3 121 731.7 121 686 121C640.3 121 594.7 121 548.8 121C503 121 457 121 411.2 121C365.3 121 319.7 121 274 121C228.3 121 182.7 121 137 121C91.3 121 45.7 121 22.8 121L0 121Z" fill="#4d8db3"></path><path d="M0 72L22.8 74.8C45.7 77.7 91.3 83.3 137 87C182.7 90.7 228.3 92.3 274 93.2C319.7 94 365.3 94 411.2 90.3C457 86.7 503 79.3 548.8 77.3C594.7 75.3 640.3 78.7 686 81.8C731.7 85 777.3 88 823 88.2C868.7 88.3 914.3 85.7 937.2 84.3L960 83L960 121L937.2 121C914.3 121 868.7 121 823 121C777.3 121 731.7 121 686 121C640.3 121 594.7 121 548.8 121C503 121 457 121 411.2 121C365.3 121 319.7 121 274 121C228.3 121 182.7 121 137 121C91.3 121 45.7 121 22.8 121L0 121Z" fill="#63aac7"></path><path d="M0 99L22.8 98.7C45.7 98.3 91.3 97.7 137 98.8C182.7 100 228.3 103 274 104.3C319.7 105.7 365.3 105.3 411.2 105.8C457 106.3 503 107.7 548.8 105.5C594.7 103.3 640.3 97.7 686 96.2C731.7 94.7 777.3 97.3 823 96.8C868.7 96.3 914.3 92.7 937.2 90.8L960 89L960 121L937.2 121C914.3 121 868.7 121 823 121C777.3 121 731.7 121 686 121C640.3 121 594.7 121 548.8 121C503 121 457 121 411.2 121C365.3 121 319.7 121 274 121C228.3 121 182.7 121 137 121C91.3 121 45.7 121 22.8 121L0 121Z" fill="#7fc7d9"></path></svg>